<!DOCTYPE svg PUBLIC "-//W3C//DTD SVG 20010904//EN" "http://www.w3.org/TR/2001/REC-SVG-20010904/DTD/svg10.dtd">
<svg version="1.0" xmlns="http://www.w3.org/2000/svg" width="384px" height="384px" viewBox="0 0 3840 3840" preserveAspectRatio="xMidYMid meet">
<g id="layer101" fill="#ffffff" stroke="none">
 <path d="M876 2885 c-304 -63 -548 -252 -686 -530 -77 -155 -93 -228 -94 -425 -1 -142 2 -177 22 -250 91 -338 363 -611 697 -700 153 -40 389 -36 571 10 96 25 294 121 414 201 113 76 283 210 362 287 l57 56 -109 80 c-60 45 -122 89 -138 98 l-30 18 -117 -95 c-303 -247 -488 -328 -745 -329 -200 -1 -340 54 -470 184 -121 122 -180 264 -180 440 0 173 55 305 180 431 123 125 290 192 480 191 207 0 388 -78 587 -250 187 -164 360 -411 743 -1062 114 -193 157 -253 200 -275 40 -21 109 -19 147 4 37 23 32 15 350 587 399 716 461 830 545 993 75 144 80 158 76 203 -6 55 -29 92 -78 126 -48 33 -104 30 -166 -9 -45 -29 -1013 -749 -1077 -801 l-28 -23 103 -76 c57 -42 118 -86 136 -98 l32 -23 38 23 c53 32 310 218 317 230 4 5 10 9 15 9 9 0 1 -15 -176 -340 -173 -318 -168 -310 -176 -310 -3 0 -70 105 -149 233 -294 478 -374 591 -539 761 -222 229 -429 363 -641 417 -110 27 -371 35 -473 14z"/>
 </g>

</svg>