<svg id="Long-Lines" xmlns="http://www.w3.org/2000/svg" width="1000" height="1000" viewBox="0 0 1000 1000">
  <defs>
    <style>
      .cls-1 {
        fill: #fff;
      }

      .cls-2 {
        fill-rule: evenodd;
      }
    </style>
  </defs>
  <circle id="Background" class="cls-1" cx="500" cy="500" r="450"/>
  <path id="Circle" class="cls-2" d="M500,0c276.142,0,500,223.858,500,500s-223.858,500-500,500S0,776.142,0,500,223.858,0,500,0Zm0,75c234.721,0,425,190.279,425,425S734.721,925,500,925,75,734.721,75,500,265.279,75,500,75Z"/>
  <path id="Square" class="cls-2" d="M150,150H850V850H150V150Zm75,75H775V775H225V225Z"/>
  <path id="Line1" class="cls-2" d="M758.229,166.459l33.541,67.082-450,225-33.541-67.082Z"/>
  <path id="Line2" class="cls-2" d="M165.99,241.577l67.076-33.566L458.045,658.348l-67.076,33.566Z"/>
  <path id="Line3" class="cls-2" d="M241.771,833.541L208.23,766.459l450-225,33.541,67.082Z"/>
  <path id="Line4" class="cls-2" d="M833.01,758.423l-67.076,33.566L540.955,341.652l67.076-33.566Z"/>
  <path id="Short-Line" class="cls-2" d="M514.424,338.141l71.152,23.718-100,300-71.152-23.718Z"/>
</svg>
