<?xml version="1.0" standalone="no"?>
<!DOCTYPE svg PUBLIC "-//W3C//DTD SVG 20010904//EN"
 "http://www.w3.org/TR/2001/REC-SVG-20010904/DTD/svg10.dtd">
<svg version="1.0" xmlns="http://www.w3.org/2000/svg"
 width="1400.000000pt" height="1400.000000pt" viewBox="0 0 1400.000000 1400.000000"
 preserveAspectRatio="xMidYMid meet">
<metadata>
Created by potrace 1.16, written by Peter Selinger 2001-2019
</metadata>
<g transform="translate(0.000000,1400.000000) scale(0.100000,-0.100000)"
fill="#dd3d3d" stroke="none">
<path d="M0 10637 l0 -3362 945 -473 945 -472 1915 3830 c1053 2106 1915 3832
1915 3835 0 3 -1287 5 -2860 5 l-2860 0 0 -3363z"/>
<path d="M6802 13055 l-472 -945 3830 -1915 c2106 -1053 3832 -1915 3835
-1915 3 0 5 1287 5 2860 l0 2860 -3363 0 -3362 0 -473 -945z"/>
<path d="M4420 8290 l-1290 -2580 1582 -791 c871 -435 1585 -793 1588 -796 2
-2 -135 -282 -305 -623 l-309 -618 -2838 1419 c-1561 780 -2840 1419 -2843
1419 -3 0 -5 -1287 -5 -2860 l0 -2860 3363 0 3362 0 1273 2545 1272 2545
-1583 791 c-870 435 -1584 793 -1587 796 -2 2 135 282 305 623 l309 618 2203
-1101 c1212 -606 2203 -1108 2203 -1114 0 -7 -639 -1291 -1420 -2853 -781
-1562 -1420 -2842 -1420 -2845 0 -3 1287 -5 2860 -5 l2860 0 0 3363 0 3362
-4145 2073 -4145 2072 -1290 -2580z"/>
</g>
</svg>
