<svg id="Long-Lines" xmlns="http://www.w3.org/2000/svg" width="1200" height="1200" viewBox="0 0 1200 1200">
  <defs>
    <style>
      .cls-1 {
        fill-rule: evenodd;
      }
    </style>
  </defs>
  <path id="Circle" class="cls-1" d="M600,100c276.142,0,500,223.858,500,500s-223.858,500-500,500S100,876.142,100,600,323.858,100,600,100Zm0,50c248.528,0,450,201.472,450,450s-201.472,450-450,450S150,848.528,150,600,351.472,150,600,150Z"/>
  <path id="Square" class="cls-1" d="M250,250H950V950H250V250Zm50,50H900V900H300V300Z"/>
  <path id="Line1" class="cls-1" d="M913.82,252.639l22.36,44.722-500,250-22.36-44.722Z"/>
  <path id="Line2" class="cls-1" d="M253.014,286.355l44.738-22.348,250.09,499.721L503.1,786.077Z"/>
  <path id="Line3" class="cls-1" d="M286.18,947.361l-22.36-44.722,500-250,22.36,44.722Z"/>
  <path id="Line4" class="cls-1" d="M947.986,913.645l-44.738,22.348L653.158,436.272,697.9,413.923Z"/>
  <path id="Short-Line" class="cls-1" d="M631.418,426.038l47.453,15.755L568.582,773.962l-47.453-15.755Z"/>
</svg>
