<svg id="Long-Lines" xmlns="http://www.w3.org/2000/svg" width="1200" height="1200" viewBox="0 0 1200 1200">
  <defs>
    <style>
      .cls-1 {
        fill-rule: evenodd;
      }
    </style>
  </defs>
  <path id="Circle" class="cls-1" d="M600,100c276.142,0,500,223.858,500,500s-223.858,500-500,500S100,876.142,100,600,323.858,100,600,100Zm0,75c234.721,0,425,190.279,425,425s-190.279,425-425,425S175,834.721,175,600,365.279,175,600,175Z"/>
  <path id="Square" class="cls-1" d="M250,250H950V950H250V250Zm75,75H875V875H325V325Z"/>
  <path id="Line1" class="cls-1" d="M858.229,266.459l33.541,67.082-450,225-33.541-67.082Z"/>
  <path id="Line2" class="cls-1" d="M265.99,341.577l67.076-33.566L558.045,758.348l-67.076,33.566Z"/>
  <path id="Line3" class="cls-1" d="M341.771,933.541L308.23,866.459l450-225,33.541,67.082Z"/>
  <path id="Line4" class="cls-1" d="M933.01,858.423l-67.076,33.566L640.955,441.652l67.076-33.566Z"/>
  <path id="Short-Line" class="cls-1" d="M614.424,438.141l71.152,23.718-100,300-71.152-23.718Z"/>
</svg>
