<?xml version="1.0" standalone="no"?>
<!DOCTYPE svg PUBLIC "-//W3C//DTD SVG 20010904//EN"
 "http://www.w3.org/TR/2001/REC-SVG-20010904/DTD/svg10.dtd">
<svg version="1.0" xmlns="http://www.w3.org/2000/svg"
 width="2400.000000pt" height="2400.000000pt" viewBox="0 0 2400.000000 2400.000000"
 preserveAspectRatio="xMidYMid meet">
<metadata>
Created by potrace 1.16, written by Peter Selinger 2001-2019
</metadata>
<g transform="translate(0.000000,2400.000000) scale(0.100000,-0.100000)"
fill="#000000" stroke="none">
<path d="M11360 19908 l0 -4093 323 323 322 322 318 -317 317 -318 0 4088 0
4087 -640 0 -640 0 0 -4092z"/>
<path d="M3337 17003 c-174 -302 -317 -554 -317 -559 0 -10 5661 -3284 5677
-3284 11 0 948 938 943 943 -13 12 -5957 3441 -5971 3444 -12 3 -96 -134 -332
-544z"/>
<path d="M9000 17205 c-399 -231 -545 -320 -544 -333 0 -13 1362 -2384 1431
-2491 15 -24 17 -22 484 445 315 314 468 474 466 485 -8 32 -1271 2209 -1281
2209 -6 0 -256 -142 -556 -315z"/>
<path d="M13811 16424 c-349 -603 -635 -1104 -638 -1113 -2 -11 151 -171 466
-485 467 -467 469 -469 484 -445 42 65 1431 2476 1434 2490 3 12 -134 96 -544
332 -302 174 -554 317 -559 317 -6 0 -295 -493 -643 -1096z"/>
<path d="M16504 15342 c-1150 -664 -2102 -1215 -2115 -1224 l-24 -17 472 -472
c461 -462 472 -472 495 -458 13 9 899 521 1971 1139 1071 618 1947 1128 1947
1134 0 19 -633 1106 -644 1106 -6 0 -952 -544 -2102 -1208z"/>
<path d="M11105 14820 l-890 -890 124 -372 c68 -205 126 -376 130 -380 5 -6
2912 955 3051 1007 9 4 -236 255 -745 765 -418 418 -764 760 -770 760 -6 0
-410 -400 -900 -890z"/>
<path d="M12285 13234 c-896 -299 -1635 -546 -1642 -548 -8 -3 100 -339 328
-1023 186 -560 341 -1023 343 -1030 3 -8 209 56 633 198 345 115 630 205 634
201 9 -10 162 -472 158 -476 -2 -2 -508 -171 -1124 -376 -616 -205 -1124 -375
-1129 -378 -10 -5 1504 -1522 1519 -1522 6 0 411 400 900 890 l890 890 -338
1015 c-186 558 -342 1015 -345 1015 -4 0 -289 -94 -633 -209 l-625 -208 -81
243 c-45 134 -78 246 -75 248 37 20 1736 576 1742 570 4 -5 175 -513 380
-1129 205 -616 375 -1124 378 -1129 5 -10 1522 1504 1522 1519 0 17 -1774
1785 -1790 1784 -8 0 -748 -245 -1645 -545z"/>
<path d="M9047 12762 c-416 -416 -757 -762 -757 -767 0 -6 400 -410 890 -900
l890 -890 372 124 c205 68 376 126 380 130 7 6 -997 3037 -1011 3053 -4 4
-347 -333 -764 -750z"/>
<path d="M6000 12000 l0 -640 1087 0 1088 0 -318 317 -317 318 322 322 323
323 -1093 0 -1092 0 0 -640z"/>
<path d="M16148 12317 l322 -322 -317 -318 -318 -317 1083 0 1082 0 0 640 0
640 -1087 0 -1088 0 323 -323z"/>
<path d="M6718 9693 c-1083 -625 -1968 -1141 -1968 -1147 0 -5 143 -257 317
-559 237 -410 320 -547 332 -544 14 3 4228 2432 4241 2444 6 6 -933 943 -945
943 -5 -1 -895 -512 -1977 -1137z"/>
<path d="M14836 10361 c-305 -305 -467 -474 -461 -480 14 -14 5937 -3433 5956
-3438 12 -3 95 134 332 544 174 302 317 554 317 559 0 7 -3654 2124 -5623
3257 l-50 29 -471 -471z"/>
<path d="M9168 8386 c-395 -684 -718 -1248 -718 -1253 0 -11 1089 -643 1106
-643 12 0 1274 2182 1274 2202 0 15 -920 938 -935 938 -6 0 -333 -560 -727
-1244z"/>
<path d="M13642 9167 c-254 -254 -462 -468 -462 -475 0 -20 1262 -2202 1274
-2202 17 0 1106 632 1106 643 0 17 -1435 2496 -1445 2497 -6 0 -218 -208 -473
-463z"/>
<path d="M11360 4087 l0 -4087 640 0 640 0 0 4082 0 4083 -317 -318 -318 -317
-322 322 -323 323 0 -4088z"/>
</g>
</svg>
