<!DOCTYPE svg PUBLIC "-//W3C//DTD SVG 20010904//EN" "http://www.w3.org/TR/2001/REC-SVG-20010904/DTD/svg10.dtd">
<svg version="1.0" xmlns="http://www.w3.org/2000/svg" width="176px" height="176px" viewBox="0 0 1760 1760" preserveAspectRatio="xMidYMid meet">
<g id="layer101" fill="#000000" stroke="none">
 <path d="M0 1520 l0 -240 240 0 240 0 0 240 0 240 -240 0 -240 0 0 -240z m320 0 l0 -80 -80 0 -80 0 0 80 0 80 80 0 80 0 0 -80z"/>
 <path d="M640 1520 l0 -240 240 0 240 0 0 240 0 240 -240 0 -240 0 0 -240z m320 0 l0 -80 -80 0 -80 0 0 80 0 80 80 0 80 0 0 -80z"/>
 <path d="M1280 1520 l0 -240 240 0 240 0 0 240 0 240 -240 0 -240 0 0 -240z m320 0 l0 -80 -80 0 -80 0 0 80 0 80 80 0 80 0 0 -80z"/>
 <path d="M0 880 l0 -240 240 0 240 0 0 240 0 240 -240 0 -240 0 0 -240z m320 0 l0 -80 -80 0 -80 0 0 80 0 80 80 0 80 0 0 -80z"/>
 <path d="M640 880 l0 -240 240 0 240 0 0 240 0 240 -240 0 -240 0 0 -240z m320 0 l0 -80 -80 0 -80 0 0 80 0 80 80 0 80 0 0 -80z"/>
 <path d="M1280 880 l0 -240 240 0 240 0 0 240 0 240 -240 0 -240 0 0 -240z m320 0 l0 -80 -80 0 -80 0 0 80 0 80 80 0 80 0 0 -80z"/>
 <path d="M0 240 l0 -240 240 0 240 0 0 240 0 240 -240 0 -240 0 0 -240z m320 0 l0 -80 -80 0 -80 0 0 80 0 80 80 0 80 0 0 -80z"/>
 <path d="M640 240 l0 -240 240 0 240 0 0 240 0 240 -240 0 -240 0 0 -240z m320 0 l0 -80 -80 0 -80 0 0 80 0 80 80 0 80 0 0 -80z"/>
 <path d="M1280 240 l0 -240 240 0 240 0 0 240 0 240 -240 0 -240 0 0 -240z m320 0 l0 -80 -80 0 -80 0 0 80 0 80 80 0 80 0 0 -80z"/>
 </g>

</svg>