<?xml version="1.0" standalone="no"?>
<!DOCTYPE svg PUBLIC "-//W3C//DTD SVG 20010904//EN"
 "http://www.w3.org/TR/2001/REC-SVG-20010904/DTD/svg10.dtd">
<svg version="1.0" xmlns="http://www.w3.org/2000/svg"
 width="300.000000pt" height="300.000000pt" viewBox="0 0 300.000000 300.000000"
 preserveAspectRatio="xMidYMid meet">
<metadata>
Created by potrace 1.16, written by Peter Selinger 2001-2019
</metadata>
<g transform="translate(0.000000,300.000000) scale(0.100000,-0.100000)"
fill="#000000" stroke="none">
<path d="M400 2300 l0 -300 300 0 300 0 0 300 0 300 -300 0 -300 0 0 -300z
m400 0 l0 -100 -100 0 -100 0 0 100 0 100 100 0 100 0 0 -100z"/>
<path d="M1200 2300 l0 -300 300 0 300 0 0 300 0 300 -300 0 -300 0 0 -300z
m400 0 l0 -100 -100 0 -100 0 0 100 0 100 100 0 100 0 0 -100z"/>
<path d="M2000 2300 l0 -300 300 0 300 0 0 300 0 300 -300 0 -300 0 0 -300z
m400 0 l0 -100 -100 0 -100 0 0 100 0 100 100 0 100 0 0 -100z"/>
<path d="M400 1500 l0 -300 300 0 300 0 0 300 0 300 -300 0 -300 0 0 -300z
m400 0 l0 -100 -100 0 -100 0 0 100 0 100 100 0 100 0 0 -100z"/>
<path d="M1200 1500 l0 -300 300 0 300 0 0 300 0 300 -300 0 -300 0 0 -300z
m400 0 l0 -100 -100 0 -100 0 0 100 0 100 100 0 100 0 0 -100z"/>
<path d="M2000 1500 l0 -300 300 0 300 0 0 300 0 300 -300 0 -300 0 0 -300z
m400 0 l0 -100 -100 0 -100 0 0 100 0 100 100 0 100 0 0 -100z"/>
<path d="M400 700 l0 -300 300 0 300 0 0 300 0 300 -300 0 -300 0 0 -300z
m400 0 l0 -100 -100 0 -100 0 0 100 0 100 100 0 100 0 0 -100z"/>
<path d="M1200 700 l0 -300 300 0 300 0 0 300 0 300 -300 0 -300 0 0 -300z
m400 0 l0 -100 -100 0 -100 0 0 100 0 100 100 0 100 0 0 -100z"/>
<path d="M2000 700 l0 -300 300 0 300 0 0 300 0 300 -300 0 -300 0 0 -300z
m400 0 l0 -100 -100 0 -100 0 0 100 0 100 100 0 100 0 0 -100z"/>
</g>
</svg>
