<!DOCTYPE svg PUBLIC "-//W3C//DTD SVG 20010904//EN" "http://www.w3.org/TR/2001/REC-SVG-20010904/DTD/svg10.dtd">
<svg version="1.0" xmlns="http://www.w3.org/2000/svg" width="300px" height="300px" viewBox="0 0 3000 3000" preserveAspectRatio="xMidYMid meet">
<g id="layer101" fill="#000000" stroke="none">
 <path d="M1440 2968 c-85 -47 -242 -138 -375 -216 -66 -38 -138 -80 -160 -92 -22 -12 -98 -56 -170 -98 -304 -176 -364 -211 -447 -258 l-88 -49 0 -753 0 -752 43 -26 c23 -13 112 -65 197 -114 278 -160 389 -224 506 -292 63 -38 117 -68 119 -68 2 0 50 -27 107 -61 57 -34 154 -90 216 -125 l113 -65 222 127 c122 70 258 148 302 174 101 60 324 189 390 226 28 15 97 55 155 89 58 34 132 77 165 95 33 18 61 34 63 36 2 1 3 341 3 755 l0 752 -143 84 c-79 45 -195 112 -258 148 -63 37 -122 70 -130 76 -18 11 -204 118 -380 219 -69 39 -181 104 -250 145 -69 40 -129 74 -135 74 -5 0 -35 -13 -65 -31z m393 -373 l187 -108 0 -584 c0 -371 -4 -583 -10 -581 -5 2 -99 55 -209 118 l-201 115 0 589 0 588 23 -14 c12 -8 106 -64 210 -123z m-435 -457 l-3 -582 -195 -113 c-107 -63 -203 -118 -212 -124 -17 -9 -18 21 -18 574 l0 584 208 121 c114 67 210 121 215 122 4 0 6 -262 5 -582z m885 195 l37 -23 0 -71 0 -70 -57 32 c-32 18 -66 37 -75 43 -15 9 -18 25 -18 84 l0 74 38 -23 c20 -13 54 -33 75 -46z m-1475 -85 c-7 -4 -41 -24 -75 -43 l-63 -36 0 65 0 65 48 27 c26 15 58 36 72 47 l25 19 3 -68 c2 -47 -1 -70 -10 -76z m1732 -62 l55 -32 3 -73 3 -73 -63 35 -63 35 -3 71 c-2 39 1 71 5 71 4 -1 33 -16 63 -34z m-2020 -40 l0 -65 -54 -30 c-29 -17 -56 -31 -60 -31 -3 0 -6 29 -6 64 l0 64 53 30 c28 17 55 31 60 31 4 1 7 -28 7 -63z m298 -152 l-3 -75 -72 -40 -73 -41 0 76 0 75 68 40 c37 22 71 40 75 41 4 0 7 -34 5 -76z m1433 36 l69 -41 0 -75 0 -76 -72 41 -73 40 -3 75 c-2 42 0 76 3 76 4 0 38 -18 76 -40z m-1738 -281 c-4 -4 -32 -21 -60 -38 l-53 -30 0 77 0 77 58 32 57 32 3 -71 c2 -39 -1 -74 -5 -79z m2085 7 c2 -42 1 -76 -2 -76 -3 0 -32 16 -65 35 l-61 36 0 75 0 76 63 -35 62 -35 3 -76z m-1778 -94 c0 -63 -3 -79 -17 -88 -10 -6 -44 -25 -75 -43 l-58 -32 0 79 0 80 68 40 c37 22 70 41 75 41 4 1 7 -34 7 -77z m1429 37 l71 -41 0 -80 0 -79 -57 32 c-32 18 -66 37 -75 43 -15 9 -18 25 -18 88 0 43 2 78 4 78 2 0 36 -18 75 -41z m-1729 -208 l0 -80 -54 -30 c-29 -17 -56 -31 -60 -31 -3 0 -6 35 -6 78 l0 77 58 32 c31 18 58 32 60 33 1 0 2 -36 2 -79z m2078 -72 l3 -81 -63 35 -63 35 -3 82 -3 82 63 -36 63 -35 3 -82z m-1780 -109 l-3 -91 -72 -40 -73 -40 0 90 0 90 68 40 c37 22 71 40 75 41 4 0 6 -41 5 -90z m1433 50 l69 -41 0 -90 0 -90 -42 26 c-24 14 -58 34 -75 42 l-33 17 0 88 c0 48 3 88 6 88 3 0 37 -18 75 -40z m-526 -107 c110 -64 201 -117 203 -118 5 -4 -416 -245 -428 -245 -6 0 -106 55 -221 122 -178 102 -208 123 -192 131 10 6 106 62 213 124 115 67 201 111 210 108 8 -4 105 -58 215 -122z m-1226 -213 c-12 -8 -40 -25 -61 -38 l-38 -23 0 93 0 93 58 32 57 32 3 -87 c3 -80 1 -88 -19 -102z m2099 30 l3 -92 -63 36 -63 35 -3 92 -3 91 63 -35 63 -35 3 -92z m-1613 -67 c36 -20 61 -40 57 -44 -4 -3 -36 -22 -72 -41 l-65 -36 -64 38 -64 38 29 17 c16 10 45 28 64 41 19 13 39 23 43 23 4 1 37 -16 72 -36z m1170 0 c36 -21 65 -40 65 -43 0 -3 -29 -21 -64 -41 l-64 -36 -71 39 c-40 22 -71 41 -69 43 10 9 124 74 131 75 5 0 37 -17 72 -37z m-1470 -170 c35 -20 62 -39 60 -42 -2 -3 -29 -19 -59 -36 l-57 -30 -57 32 c-31 17 -57 36 -57 42 0 9 89 70 103 71 2 0 32 -17 67 -37z m593 1 c35 -20 60 -40 55 -44 -4 -5 -35 -24 -68 -43 l-60 -35 -55 30 c-88 49 -88 49 -17 90 34 21 66 37 71 38 5 0 38 -16 74 -36z m587 -1 c40 -23 61 -41 56 -46 -5 -5 -35 -24 -67 -42 l-57 -32 -68 39 c-38 22 -69 41 -69 43 0 5 123 75 133 75 4 0 37 -17 72 -37z m576 5 c33 -18 59 -35 59 -38 0 -3 -28 -22 -63 -42 l-62 -37 -55 31 c-30 17 -58 33 -62 37 -6 5 104 78 121 81 2 0 30 -15 62 -32z m-1464 -173 c34 -20 63 -39 63 -43 0 -4 -26 -21 -58 -39 l-57 -31 -68 41 -69 40 59 34 c32 18 60 33 62 33 2 0 33 -16 68 -35z m598 -4 l67 -39 -62 -36 c-33 -20 -66 -36 -71 -36 -18 0 -140 72 -134 79 13 13 110 69 121 70 7 1 42 -17 79 -38z m579 5 l59 -33 -68 -41 -68 -41 -46 26 c-80 46 -80 46 -10 87 35 19 66 36 69 36 3 0 31 -15 64 -34z m-871 -172 c34 -20 63 -37 65 -39 2 -1 -26 -19 -62 -39 l-66 -37 -70 42 -71 42 58 33 c32 18 64 34 71 34 8 0 41 -16 75 -36z m580 2 l58 -33 -61 -37 c-34 -20 -66 -36 -71 -36 -6 0 -37 15 -69 32 l-58 33 61 37 c34 20 67 37 72 37 6 0 36 -15 68 -33z m-289 -170 l59 -33 -62 -37 c-34 -20 -67 -36 -72 -36 -13 0 -119 63 -119 70 0 7 112 69 125 69 6 1 37 -14 69 -33z"/>
 </g>

</svg>