<!DOCTYPE svg PUBLIC "-//W3C//DTD SVG 20010904//EN" "http://www.w3.org/TR/2001/REC-SVG-20010904/DTD/svg10.dtd">
<svg version="1.0" xmlns="http://www.w3.org/2000/svg" width="400px" height="400px" viewBox="0 0 4000 4000" preserveAspectRatio="xMidYMid meet">
<g id="layer101" fill="#ffffff" stroke="none">
 <path d="M1820 3899 c-96 -56 -249 -144 -340 -196 -141 -81 -296 -170 -465 -268 -22 -13 -123 -71 -225 -130 -102 -59 -260 -151 -352 -203 l-168 -97 0 -1005 0 -1005 73 -39 c39 -22 159 -91 266 -153 106 -62 195 -113 196 -113 2 0 39 -21 82 -47 43 -25 152 -89 243 -141 91 -53 251 -145 355 -205 105 -60 264 -152 354 -203 l163 -94 177 102 c259 149 667 384 1036 598 88 51 239 137 335 192 96 55 176 102 178 103 2 2 4 455 4 1007 l0 1003 -194 112 c-106 62 -260 151 -343 198 -297 171 -493 284 -639 369 -82 47 -151 86 -153 86 -2 0 -22 12 -46 27 -66 42 -349 203 -356 203 -3 0 -85 -46 -181 -101z m33 -1820 c-9 -9 -802 -469 -809 -469 -2 0 -4 348 -4 773 l0 772 408 236 407 236 3 -770 c1 -424 -1 -774 -5 -778z m701 1311 l406 -235 0 -773 c0 -446 -4 -772 -9 -770 -5 2 -191 109 -415 238 l-406 235 0 773 c0 471 4 772 9 770 5 -1 192 -109 415 -238z m-1784 -529 l0 -139 -115 -66 c-63 -36 -117 -66 -120 -66 -3 0 -4 61 -3 136 l3 136 115 68 c63 38 116 69 118 69 1 1 2 -62 2 -138z m2690 -129 c0 -74 -4 -132 -8 -130 -4 2 -56 30 -115 63 l-107 60 0 137 0 137 115 -67 115 -67 0 -133z m-82 -407 l82 -47 0 -165 0 -165 -37 22 c-21 12 -73 42 -115 67 l-78 45 0 165 0 165 33 -20 c17 -11 69 -41 115 -67z m-2608 -87 l0 -163 -78 -44 c-42 -25 -96 -56 -119 -69 l-43 -24 0 165 0 165 113 65 c61 36 115 65 120 66 4 1 7 -72 7 -161z m1623 -624 c216 -125 397 -232 404 -238 9 -8 -83 -67 -384 -241 -218 -126 -404 -230 -413 -230 -28 0 -810 459 -800 469 8 8 790 464 798 466 2 0 180 -102 395 -226z m960 77 l107 -63 0 -154 c0 -85 -2 -154 -4 -154 -3 0 -53 28 -113 63 l-108 63 -3 158 c-1 87 1 156 5 153 5 -2 56 -32 116 -66z m-2585 -93 l-3 -151 -70 -41 c-38 -23 -91 -54 -117 -69 l-48 -28 0 154 0 154 113 66 c61 36 115 66 120 67 4 0 6 -68 5 -152z m286 -472 c75 -44 136 -83 136 -86 0 -7 -225 -140 -236 -140 -3 0 -68 37 -145 81 -83 48 -137 85 -131 91 14 14 226 137 233 135 3 -1 68 -38 143 -81z m2144 22 c59 -34 113 -67 120 -73 11 -10 -15 -29 -127 -94 -77 -44 -142 -81 -145 -81 -11 0 -236 133 -236 139 0 5 263 166 278 170 1 1 51 -27 110 -61z m-1566 -359 c43 -24 78 -46 78 -49 0 -6 -218 -133 -235 -137 -5 -2 -63 28 -128 66 l-118 69 123 70 123 71 40 -23 c22 -12 75 -42 117 -67z m1021 16 l118 -67 -118 -69 c-65 -38 -122 -68 -128 -66 -17 4 -235 131 -235 137 0 7 232 140 239 136 3 -2 59 -34 124 -71z m-532 -291 c63 -36 117 -69 121 -73 4 -3 -49 -39 -117 -79 l-125 -72 -125 72 c-68 40 -122 75 -119 78 11 11 230 138 240 139 6 1 63 -29 125 -65z"/>
 </g>

</svg>