<?xml version="1.0" standalone="no"?>
<!DOCTYPE svg PUBLIC "-//W3C//DTD SVG 20010904//EN"
 "http://www.w3.org/TR/2001/REC-SVG-20010904/DTD/svg10.dtd">
<svg version="1.0" xmlns="http://www.w3.org/2000/svg"
 width="240.000000pt" height="240.000000pt" viewBox="0 0 240.000000 240.000000"
 preserveAspectRatio="xMidYMid meet">
<metadata>
Created by potrace 1.16, written by Peter Selinger 2001-2019
</metadata>
<g transform="translate(0.000000,240.000000) scale(0.100000,-0.100000)"
fill="#000000" stroke="none">
<path d="M200 1200 l0 -1000 600 0 600 0 0 100 0 100 -500 0 -500 0 0 800 0
800 800 0 800 0 0 -500 0 -500 100 0 100 0 0 600 0 600 -1000 0 -1000 0 0
-1000z"/>
<path d="M500 1650 l0 -250 100 0 100 0 0 150 0 150 150 0 150 0 0 100 0 100
-250 0 -250 0 0 -250z"/>
<path d="M1400 1800 l0 -100 150 0 150 0 0 -150 0 -150 100 0 100 0 0 250 0
250 -250 0 -250 0 0 -100z"/>
<path d="M1100 1500 l0 -100 100 0 100 0 0 100 0 100 -100 0 -100 0 0 -100z"/>
<path d="M800 1200 l0 -100 100 0 100 0 0 100 0 100 -100 0 -100 0 0 -100z"/>
<path d="M1100 1200 l0 -100 100 0 100 0 0 100 0 100 -100 0 -100 0 0 -100z"/>
<path d="M1400 1200 l0 -100 100 0 100 0 0 100 0 100 -100 0 -100 0 0 -100z"/>
<path d="M500 750 l0 -250 250 0 250 0 0 100 0 100 -150 0 -150 0 0 150 0 150
-100 0 -100 0 0 -250z"/>
<path d="M1100 900 l0 -100 100 0 100 0 0 100 0 100 -100 0 -100 0 0 -100z"/>
<path d="M1900 650 l0 -150 -150 0 -150 0 0 -100 0 -100 150 0 150 0 0 -150 0
-150 100 0 100 0 0 150 0 150 150 0 150 0 0 100 0 100 -150 0 -150 0 0 150 0
150 -100 0 -100 0 0 -150z"/>
</g>
</svg>
