<!DOCTYPE svg PUBLIC "-//W3C//DTD SVG 20010904//EN" "http://www.w3.org/TR/2001/REC-SVG-20010904/DTD/svg10.dtd">
<svg version="1.0" xmlns="http://www.w3.org/2000/svg" width="300px" height="300px" viewBox="0 0 3000 3000" preserveAspectRatio="xMidYMid meet">
<g id="layer101" fill="#000000" stroke="none">
 <path d="M1605 2612 c-239 -125 -447 -285 -512 -393 l-32 -54 -5 -440 c-3 -295 -8 -450 -15 -469 -7 -16 -8 -33 -4 -37 5 -5 87 18 183 51 157 53 180 59 242 56 38 -2 71 -5 72 -7 4 -4 10 -188 7 -231 l-1 -28 -290 0 c-270 0 -290 1 -290 18 0 133 -37 547 -55 627 -8 33 -17 77 -20 98 -29 180 -204 535 -297 605 -10 7 -18 19 -18 25 0 7 -30 45 -68 85 -53 58 -71 72 -86 66 -15 -6 -17 -14 -12 -46 4 -22 13 -49 21 -61 19 -30 72 -174 102 -277 27 -96 59 -278 73 -420 5 -52 14 -120 19 -150 21 -118 37 -795 18 -807 -4 -2 -7 -30 -7 -61 -1 -31 -9 -97 -19 -147 -12 -56 -15 -94 -10 -100 6 -6 37 0 87 19 254 93 305 108 346 103 82 -11 168 -28 184 -36 9 -5 58 -18 107 -30 115 -28 318 -93 415 -133 81 -33 196 -94 206 -109 3 -5 12 -9 21 -9 12 0 262 144 309 177 5 5 32 20 60 35 61 33 71 48 58 85 -10 27 -11 28 -79 25 -39 -2 -110 2 -160 9 -49 6 -133 16 -185 23 l-95 11 -3 138 -3 137 129 0 128 0 31 -42 c119 -161 115 -158 154 -158 19 0 48 22 109 80 46 44 86 80 89 80 11 1 69 58 81 80 6 11 8 30 5 40 -6 19 -17 20 -366 20 l-359 0 0 129 0 128 73 7 c41 4 80 4 88 1 8 -4 30 -29 49 -57 45 -66 76 -98 93 -98 8 0 43 19 78 43 35 24 99 65 142 91 43 27 82 57 88 68 16 29 -6 79 -51 113 l-39 30 -1 313 c0 353 2 342 -79 442 -24 30 -65 73 -91 95 -107 89 -283 204 -344 225 -20 6 -38 16 -42 21 -4 8 -111 60 -118 59 0 0 -50 -26 -111 -58z m220 -114 c33 -27 65 -48 72 -48 7 0 13 -4 13 -8 0 -5 21 -30 46 -58 83 -89 99 -126 99 -229 l0 -90 -335 0 -335 0 -3 83 c-2 70 1 90 20 129 29 58 127 155 236 233 95 68 84 68 187 -12z m233 -640 l-3 -123 -337 -3 -338 -2 0 125 0 125 341 0 340 0 -3 -122z m-2 -226 c9 -8 13 -24 10 -37 -3 -12 -6 -58 -7 -102 -1 -79 -2 -81 -28 -86 -21 -3 -214 -3 -603 2 l-48 1 0 113 c0 63 2 116 5 119 3 2 151 5 331 5 277 0 327 -2 340 -15z m-516 -803 l0 -132 -82 7 c-46 4 -172 11 -280 14 -108 4 -198 9 -201 12 -3 3 -7 56 -9 118 l-4 112 288 0 288 0 0 -131z"/>
 </g>

</svg>