<!DOCTYPE svg PUBLIC "-//W3C//DTD SVG 20010904//EN" "http://www.w3.org/TR/2001/REC-SVG-20010904/DTD/svg10.dtd">
<svg version="1.0" xmlns="http://www.w3.org/2000/svg" width="300px" height="300px" viewBox="0 0 3000 3000" preserveAspectRatio="xMidYMid meet">
<g id="layer101" fill="#000000" stroke="none">
 <path d="M1300 2794 c-86 -11 -188 -36 -241 -60 l-59 -27 0 -287 0 -286 -53 -17 c-30 -9 -74 -17 -99 -17 l-45 0 -6 113 c-3 78 -11 130 -26 171 -28 78 -66 128 -94 124 -22 -3 -22 -5 -25 -257 l-2 -254 -25 -29 c-34 -41 -34 -100 0 -134 23 -23 25 -31 25 -129 l0 -105 46 0 c37 0 51 5 75 29 27 28 29 34 29 111 0 64 3 80 13 73 6 -5 48 -22 92 -38 103 -36 124 -47 159 -81 62 -63 72 -114 86 -464 14 -355 46 -570 117 -790 l28 -85 53 -3 52 -3 0 -45 c0 -37 6 -51 29 -75 66 -66 171 -20 171 75 l0 45 52 3 52 3 28 84 c71 214 104 435 118 791 14 344 25 403 86 463 35 35 56 46 159 82 44 16 86 33 93 38 9 7 12 -9 12 -73 0 -77 2 -83 29 -111 24 -24 38 -29 75 -29 l46 0 0 101 c0 93 2 103 25 131 34 40 34 96 0 136 l-25 29 -2 254 c-3 252 -3 254 -25 257 -28 4 -66 -46 -94 -124 -15 -41 -23 -93 -26 -171 l-6 -113 -45 0 c-25 0 -69 8 -99 17 l-53 17 0 286 0 287 -58 26 c-102 46 -180 58 -402 62 -113 2 -221 1 -240 -1z m253 -405 c105 -29 164 -139 132 -246 -23 -77 -108 -143 -185 -143 -39 0 -95 25 -131 57 -109 99 -72 279 67 328 48 17 68 18 117 4z"/>
 <path d="M0 1235 c0 -24 195 -147 375 -235 181 -89 399 -166 583 -204 67 -14 127 -26 132 -26 6 0 10 25 10 55 0 30 -4 55 -9 55 -4 0 -60 9 -124 20 -297 52 -600 156 -864 297 -79 42 -103 51 -103 38z"/>
 <path d="M2930 1213 c-174 -98 -450 -207 -667 -263 -96 -25 -324 -70 -354 -70 -5 0 -9 -25 -9 -55 0 -30 4 -55 10 -55 5 0 65 12 132 26 183 38 402 115 583 203 174 86 375 212 375 236 0 8 -1 15 -2 15 -2 0 -32 -17 -68 -37z"/>
 </g>

</svg>