<?xml version="1.0" standalone="no"?>
<!DOCTYPE svg PUBLIC "-//W3C//DTD SVG 20010904//EN"
 "http://www.w3.org/TR/2001/REC-SVG-20010904/DTD/svg10.dtd">
<svg version="1.0" xmlns="http://www.w3.org/2000/svg"
 width="300.000000pt" height="300.000000pt" viewBox="0 0 300.000000 300.000000"
 preserveAspectRatio="xMidYMid meet">
<metadata>
Created by potrace 1.16, written by Peter Selinger 2001-2019
</metadata>
<g transform="translate(0.000000,300.000000) scale(0.100000,-0.100000)"
fill="#000000" stroke="none">
<path d="M400 1850 l0 -750 75 0 75 0 0 675 0 675 950 0 950 0 0 -950 0 -950
-800 0 -800 0 0 -75 0 -75 875 0 875 0 0 1100 0 1100 -1100 0 -1100 0 0 -750z"/>
<path d="M700 1700 l0 -600 75 0 75 0 0 -200 0 -200 725 0 725 0 0 800 0 800
-800 0 -800 0 0 -600z m1100 -200 l0 -200 -300 0 -300 0 0 200 0 200 300 0
300 0 0 -200z m300 -302 l0 -198 -298 0 -298 0 -74 75 -74 75 297 0 297 0 0
197 0 197 75 -74 75 -74 0 -198z"/>
<path d="M200 875 l0 -75 175 0 175 0 0 -75 0 -75 -175 0 -175 0 0 -225 0
-225 250 0 250 0 0 75 0 75 -175 0 -175 0 0 75 0 75 175 0 175 0 0 225 0 225
-250 0 -250 0 0 -75z"/>
</g>
</svg>
