<!DOCTYPE svg PUBLIC "-//W3C//DTD SVG 20010904//EN" "http://www.w3.org/TR/2001/REC-SVG-20010904/DTD/svg10.dtd">
<svg version="1.0" xmlns="http://www.w3.org/2000/svg" width="300px" height="300px" viewBox="0 0 3000 3000" preserveAspectRatio="xMidYMid meet">
<g id="layer101" fill="#000000" stroke="none">
 <path d="M600 2100 l0 -100 100 0 100 0 0 100 0 100 -100 0 -100 0 0 -100z"/>
 <path d="M1000 2103 l0 -98 -49 -42 c-71 -62 -137 -167 -197 -315 l-19 -48 -67 0 -68 0 0 -100 0 -100 410 0 410 0 21 -47 c70 -156 102 -215 144 -271 26 -34 51 -62 56 -62 5 0 9 -4 9 -10 0 -6 -48 -10 -125 -10 l-125 0 0 -100 0 -100 700 0 700 0 0 100 0 100 -400 0 c-260 0 -400 4 -400 10 0 6 4 10 9 10 18 0 105 127 143 210 54 119 56 122 63 148 l6 22 290 0 289 0 0 218 0 219 -31 44 c-18 24 -50 61 -72 82 l-41 37 72 0 72 0 0 100 0 100 -900 0 -900 0 0 -97z m1341 -152 c-71 -69 -118 -147 -177 -291 l-22 -55 -317 -3 -316 -2 -11 32 c-6 18 -35 80 -65 138 -53 104 -87 149 -151 203 l-34 27 572 0 571 0 -50 -49z m-1161 -106 c15 -8 44 -34 63 -57 36 -45 103 -175 95 -183 -3 -3 -103 -4 -222 -3 l-217 3 41 82 c71 143 158 200 240 158z m1429 -20 c32 -29 131 -195 131 -219 0 -3 -97 -6 -216 -6 l-215 0 6 23 c18 56 81 160 121 197 37 34 50 40 89 40 37 0 51 -6 84 -35z m-549 -430 c0 -3 -19 -44 -42 -91 -53 -108 -96 -158 -152 -179 -59 -23 -102 -8 -155 51 -33 38 -95 150 -114 207 -6 16 9 17 228 17 129 0 235 -2 235 -5z"/>
 <path d="M200 1500 l0 -100 100 0 100 0 0 100 0 100 -100 0 -100 0 0 -100z"/>
 <path d="M1000 900 l0 -100 100 0 100 0 0 100 0 100 -100 0 -100 0 0 -100z"/>
 </g>

</svg>