<?xml version="1.0" standalone="no"?>
<!DOCTYPE svg PUBLIC "-//W3C//DTD SVG 20010904//EN"
 "http://www.w3.org/TR/2001/REC-SVG-20010904/DTD/svg10.dtd">
<svg version="1.0" xmlns="http://www.w3.org/2000/svg"
 width="300.000000pt" height="300.000000pt" viewBox="0 0 300.000000 300.000000"
 preserveAspectRatio="xMidYMid meet">
<metadata>
Created by potrace 1.16, written by Peter Selinger 2001-2019
</metadata>
<g transform="translate(0.000000,300.000000) scale(0.100000,-0.100000)"
fill="#000000" stroke="none">
<path d="M1300 1500 l0 -900 200 0 200 0 0 900 0 900 -200 0 -200 0 0 -900z
m300 0 l0 -100 -100 0 -100 0 0 100 0 100 100 0 100 0 0 -100z"/>
<path d="M750 1200 l0 -600 200 0 200 0 0 600 0 600 -200 0 -200 0 0 -600z"/>
<path d="M1850 1200 l0 -600 200 0 200 0 0 600 0 600 -200 0 -200 0 0 -600z"/>
<path d="M200 900 l0 -300 200 0 200 0 0 300 0 300 -200 0 -200 0 0 -300z"/>
<path d="M2400 900 l0 -300 200 0 200 0 0 300 0 300 -200 0 -200 0 0 -300z"/>
</g>
</svg>
