<!DOCTYPE svg PUBLIC "-//W3C//DTD SVG 20010904//EN" "http://www.w3.org/TR/2001/REC-SVG-20010904/DTD/svg10.dtd">
<svg version="1.0" xmlns="http://www.w3.org/2000/svg" width="300px" height="300px" viewBox="0 0 3000 3000" preserveAspectRatio="xMidYMid meet">
<g id="layer101" fill="#000000" stroke="none">
 <path d="M981 2525 c-403 -206 -736 -376 -738 -379 -6 -6 249 -1623 259 -1638 5 -9 1310 -223 1599 -263 l45 -6 378 742 378 742 -588 588 c-324 324 -591 589 -594 589 -3 -1 -335 -169 -739 -375z m761 68 l58 -57 0 -268 0 -268 -300 0 -300 0 0 203 0 203 238 122 c130 67 239 122 242 122 2 0 30 -26 62 -57z m428 -428 l165 -165 -168 0 -167 0 0 165 c0 91 1 165 3 165 1 0 76 -74 167 -165z m-1170 -15 l0 -150 -271 0 c-239 0 -270 2 -267 15 2 13 506 283 531 285 4 0 7 -67 7 -150z m0 -650 l0 -300 -205 0 c-113 0 -205 3 -205 6 0 4 -20 134 -45 291 -25 156 -45 288 -45 293 0 6 99 10 250 10 l250 0 0 -300z m800 0 l0 -300 -300 0 -300 0 0 300 0 300 300 0 300 0 0 -300z m794 241 l58 -59 -123 -241 -123 -241 -203 0 -203 0 0 300 0 300 268 0 268 0 58 -59z m-1594 -929 l0 -188 -162 25 -163 26 -26 163 -25 162 188 0 188 0 0 -188z m800 -62 c0 -151 -4 -250 -10 -250 -5 0 -137 20 -293 45 -157 25 -287 45 -291 45 -3 0 -6 92 -6 205 l0 205 300 0 300 0 0 -250z m500 245 c0 -3 -61 -124 -136 -270 -81 -158 -141 -265 -150 -265 -12 0 -14 44 -14 270 l0 270 150 0 c83 0 150 -2 150 -5z"/>
 </g>

</svg>