<?xml version="1.0" standalone="no"?>
<!DOCTYPE svg PUBLIC "-//W3C//DTD SVG 20010904//EN"
 "http://www.w3.org/TR/2001/REC-SVG-20010904/DTD/svg10.dtd">
<svg version="1.0" xmlns="http://www.w3.org/2000/svg"
 width="300.000000pt" height="300.000000pt" viewBox="0 0 300.000000 300.000000"
 preserveAspectRatio="xMidYMid meet">
<metadata>
Created by potrace 1.16, written by Peter Selinger 2001-2019
</metadata>
<g transform="translate(0.000000,300.000000) scale(0.100000,-0.100000)"
fill="#000000" stroke="none">
<path d="M700 2300 l0 -400 150 0 150 0 0 -75 0 -75 -150 0 -150 0 0 -75 0
-75 150 0 150 0 0 -75 0 -75 -150 0 -150 0 0 -75 0 -75 150 0 150 0 0 -100 0
-100 -150 0 -150 0 0 -400 0 -400 675 0 675 0 0 475 0 475 125 0 125 0 0 250
0 250 -100 0 -100 0 0 75 0 75 100 0 100 0 0 400 0 400 -800 0 -800 0 0 -400z
m1200 -200 l0 -200 -100 0 -100 0 0 -400 0 -400 100 0 100 0 0 -200 0 -200
-400 0 -400 0 0 200 0 200 50 0 50 0 0 400 0 400 -50 0 -50 0 0 200 0 200 400
0 400 0 0 -200z"/>
<path d="M2200 1025 l0 -75 110 0 110 0 0 -150 0 -150 -110 0 -110 0 0 -225 0
-225 300 0 300 0 0 225 0 225 -110 0 -110 0 0 150 0 150 110 0 110 0 0 75 0
75 -300 0 -300 0 0 -75z m380 -475 l0 -100 -80 0 -80 0 0 100 0 100 80 0 80 0
0 -100z"/>
</g>
</svg>
