<?xml version="1.0" standalone="no"?>
<!DOCTYPE svg PUBLIC "-//W3C//DTD SVG 20010904//EN"
 "http://www.w3.org/TR/2001/REC-SVG-20010904/DTD/svg10.dtd">
<svg version="1.0" xmlns="http://www.w3.org/2000/svg"
 width="300.000000pt" height="300.000000pt" viewBox="0 0 300.000000 300.000000"
 preserveAspectRatio="xMidYMid meet">
<metadata>
Created by potrace 1.16, written by Peter Selinger 2001-2019
</metadata>
<g transform="translate(0.000000,300.000000) scale(0.100000,-0.100000)"
fill="#000000" stroke="none">
<path d="M400 1500 l0 -1100 825 0 825 0 0 150 0 150 -25 0 -25 0 0 100 0 100
25 0 c24 0 25 2 25 75 0 73 -1 75 -25 75 -24 0 -25 2 -25 75 0 73 1 75 25 75
20 0 25 5 25 25 l0 25 275 0 275 0 0 675 0 675 -1100 0 -1100 0 0 -1100z m600
725 l0 -75 -150 0 -150 0 0 75 0 75 150 0 150 0 0 -75z m800 -725 l0 -800
-300 0 -300 0 0 800 0 800 300 0 300 0 0 -800z m500 725 l0 -75 -150 0 -150 0
0 75 0 75 150 0 150 0 0 -75z m-1300 -300 l0 -75 -150 0 -150 0 0 75 0 75 150
0 150 0 0 -75z m1300 0 l0 -75 -150 0 -150 0 0 75 0 75 150 0 150 0 0 -75z
m-1300 -400 l0 -175 -150 0 -150 0 0 175 0 175 150 0 150 0 0 -175z m1300 0
l0 -175 -150 0 -150 0 0 175 0 175 150 0 150 0 0 -175z m-1300 -400 l0 -75
-150 0 -150 0 0 75 0 75 150 0 150 0 0 -75z m0 -325 l0 -100 -150 0 -150 0 0
100 0 100 150 0 150 0 0 -100z"/>
<path d="M2200 1025 l0 -75 110 0 110 0 0 -150 0 -150 -110 0 -110 0 0 -225 0
-225 300 0 300 0 0 225 0 225 -110 0 -110 0 0 150 0 150 110 0 110 0 0 75 0
75 -300 0 -300 0 0 -75z m380 -475 l0 -100 -80 0 -80 0 0 100 0 100 80 0 80 0
0 -100z"/>
</g>
</svg>
