<?xml version="1.0" standalone="no"?>
<!DOCTYPE svg PUBLIC "-//W3C//DTD SVG 20010904//EN"
 "http://www.w3.org/TR/2001/REC-SVG-20010904/DTD/svg10.dtd">
<svg version="1.0" xmlns="http://www.w3.org/2000/svg"
 width="300.000000pt" height="300.000000pt" viewBox="0 0 300.000000 300.000000"
 preserveAspectRatio="xMidYMid meet">
<metadata>
Created by potrace 1.16, written by Peter Selinger 2001-2019
</metadata>
<g transform="translate(0.000000,300.000000) scale(0.100000,-0.100000)"
fill="#000000" stroke="none">
<path d="M700 1725 l0 -625 75 0 75 0 0 550 0 550 650 0 650 0 0 -750 0 -750
75 0 75 0 0 825 0 825 -800 0 -800 0 0 -625z"/>
<path d="M0 2000 l0 -200 125 0 125 0 0 60 0 60 75 0 75 0 0 -60 0 -60 75 0
75 0 0 200 0 200 -75 0 -75 0 0 -60 0 -60 -75 0 -75 0 0 60 0 60 -125 0 -125
0 0 -200z"/>
<path d="M2450 2000 l0 -200 75 0 75 0 0 60 0 60 75 0 75 0 0 -60 0 -60 125 0
125 0 0 200 0 200 -125 0 -125 0 0 -60 0 -60 -75 0 -75 0 0 60 0 60 -75 0 -75
0 0 -200z"/>
<path d="M1200 1700 l0 -200 -100 0 -100 0 0 -200 0 -200 200 0 200 0 0 -200
0 -200 100 0 100 0 0 200 0 200 200 0 200 0 0 200 0 200 -100 0 -100 0 0 200
0 200 -300 0 -300 0 0 -200z"/>
<path d="M0 1450 l0 -200 125 0 125 0 0 60 0 60 75 0 75 0 0 -60 0 -60 75 0
75 0 0 200 0 200 -75 0 -75 0 0 -60 0 -60 -75 0 -75 0 0 60 0 60 -125 0 -125
0 0 -200z"/>
<path d="M2450 1450 l0 -200 75 0 75 0 0 60 0 60 75 0 75 0 0 -60 0 -60 125 0
125 0 0 200 0 200 -125 0 -125 0 0 -60 0 -60 -75 0 -75 0 0 60 0 60 -75 0 -75
0 0 -200z"/>
<path d="M2450 900 l0 -200 75 0 75 0 0 60 0 60 75 0 75 0 0 -60 0 -60 125 0
125 0 0 200 0 200 -125 0 -125 0 0 -60 0 -60 -75 0 -75 0 0 60 0 60 -75 0 -75
0 0 -200z"/>
<path d="M200 875 l0 -75 175 0 175 0 0 -75 0 -75 -175 0 -175 0 0 -225 0
-225 250 0 250 0 0 75 0 75 -175 0 -175 0 0 75 0 75 175 0 175 0 0 225 0 225
-250 0 -250 0 0 -75z"/>
</g>
</svg>
