<!DOCTYPE svg PUBLIC "-//W3C//DTD SVG 20010904//EN" "http://www.w3.org/TR/2001/REC-SVG-20010904/DTD/svg10.dtd">
<svg version="1.0" xmlns="http://www.w3.org/2000/svg" width="300px" height="300px" viewBox="0 0 3000 3000" preserveAspectRatio="xMidYMid meet">
<g id="layer101" fill="#000000" stroke="none">
 <path d="M415 2491 c-48 -22 -79 -54 -100 -103 -13 -33 -15 -154 -15 -1008 l0 -970 1200 0 1200 0 0 970 c0 854 -2 975 -15 1008 -21 49 -52 81 -100 103 -38 18 -90 19 -1085 19 -995 0 -1047 -1 -1085 -19z m385 -381 l0 -200 -50 0 -50 0 0 -250 0 -250 -100 0 -100 0 0 450 0 450 150 0 150 0 0 -200z m600 0 l0 -200 -50 0 -50 0 0 -250 0 -250 -100 0 -100 0 0 250 0 250 -50 0 -50 0 0 200 0 200 200 0 200 0 0 -200z m600 0 l0 -200 -50 0 -50 0 0 -250 0 -250 -100 0 -100 0 0 250 0 250 -50 0 -50 0 0 200 0 200 200 0 200 0 0 -200z m500 -250 l0 -450 -100 0 -100 0 0 250 0 250 -50 0 -50 0 0 200 0 200 150 0 150 0 0 -450z m-1600 -850 l0 -200 100 0 100 0 0 -100 0 -100 -300 0 -300 0 0 100 0 100 100 0 100 0 0 200 0 200 100 0 100 0 0 -200z m500 68 l0 -133 133 133 132 132 68 0 67 0 0 -300 0 -300 -100 0 -100 0 0 132 0 133 -133 -133 -132 -132 -68 0 -67 0 0 300 0 300 100 0 100 0 0 -132z m900 -68 l0 -200 100 0 100 0 0 -100 0 -100 -300 0 -300 0 0 100 0 100 100 0 100 0 0 200 0 200 100 0 100 0 0 -200z"/>
 </g>

</svg>