<?xml version="1.0" standalone="no"?>
<!DOCTYPE svg PUBLIC "-//W3C//DTD SVG 20010904//EN"
 "http://www.w3.org/TR/2001/REC-SVG-20010904/DTD/svg10.dtd">
<svg version="1.0" xmlns="http://www.w3.org/2000/svg"
 width="300.000000pt" height="300.000000pt" viewBox="0 0 300.000000 300.000000"
 preserveAspectRatio="xMidYMid meet">
<metadata>
Created by potrace 1.16, written by Peter Selinger 2001-2019
</metadata>
<g transform="translate(0.000000,300.000000) scale(0.100000,-0.100000)"
fill="#000000" stroke="none">
<path d="M300 1500 l0 -1000 1200 0 1200 0 0 1000 0 1000 -1200 0 -1200 0 0
-1000z m800 700 l0 -100 -100 0 -100 0 0 -200 0 -200 -100 0 -100 0 0 200 0
200 -100 0 -100 0 0 100 0 100 300 0 300 0 0 -100z m364 -31 l136 -131 0 131
0 131 100 0 100 0 0 -300 0 -300 -64 0 -63 0 -137 131 -136 131 0 -131 0 -131
-100 0 -100 0 0 300 0 300 64 0 63 0 137 -131z m1036 31 l0 -100 -100 0 -100
0 0 -200 0 -200 -100 0 -100 0 0 200 0 200 -100 0 -100 0 0 100 0 100 300 0
300 0 0 -100z m-1800 -950 l0 -250 50 0 50 0 0 -150 0 -150 -150 0 -150 0 0
400 0 400 100 0 100 0 0 -250z m600 0 l0 -250 50 0 50 0 0 -150 0 -150 -200 0
-200 0 0 150 0 150 50 0 50 0 0 250 0 250 100 0 100 0 0 -250z m600 0 l0 -250
50 0 50 0 0 -150 0 -150 -200 0 -200 0 0 150 0 150 50 0 50 0 0 250 0 250 100
0 100 0 0 -250z m600 -150 l0 -400 -150 0 -150 0 0 150 0 150 50 0 50 0 0 250
0 250 100 0 100 0 0 -400z"/>
</g>
</svg>
